<svg width="37" height="35" viewBox="0 0 37 35" fill="none" xmlns="http://www.w3.org/2000/svg">
<path d="M4 1C2.34315 1 1 2.34315 1 4V6.25C1 7.90685 2.34315 9.25 4 9.25H6.75C8.40685 9.25 9.75 7.90685 9.75 6.25V4C9.75 2.34315 8.40685 1 6.75 1H4ZM17.125 1C15.4681 1 14.125 2.34315 14.125 4V6.25C14.125 7.90685 15.4681 9.25 17.125 9.25H19.875C21.5319 9.25 22.875 7.90685 22.875 6.25V4C22.875 2.34315 21.5319 1 19.875 1H17.125ZM30.25 1C28.5931 1 27.25 2.34315 27.25 4V6.25C27.25 7.90685 28.5931 9.25 30.25 9.25H33C34.6569 9.25 36 7.90685 36 6.25V4C36 2.34315 34.6569 1 33 1H30.25ZM4 13.375C2.34315 13.375 1 14.7181 1 16.375V18.625C1 20.2819 2.34315 21.625 4 21.625H6.75C8.40685 21.625 9.75 20.2819 9.75 18.625V16.375C9.75 14.7181 8.40685 13.375 6.75 13.375H4ZM17.125 13.375C15.4681 13.375 14.125 14.7181 14.125 16.375V18.625C14.125 20.2819 15.4681 21.625 17.125 21.625H19.875C21.5319 21.625 22.875 20.2819 22.875 18.625V16.375C22.875 14.7181 21.5319 13.375 19.875 13.375H17.125ZM30.25 13.375C28.5931 13.375 27.25 14.7181 27.25 16.375V18.625C27.25 20.2819 28.5931 21.625 30.25 21.625H33C34.6569 21.625 36 20.2819 36 18.625V16.375C36 14.7181 34.6569 13.375 33 13.375H30.25ZM4 25.75C2.34315 25.75 1 27.0931 1 28.75V31C1 32.6569 2.34315 34 4 34H6.75C8.40685 34 9.75 32.6569 9.75 31V28.75C9.75 27.0931 8.40685 25.75 6.75 25.75H4ZM17.125 25.75C15.4681 25.75 14.125 27.0931 14.125 28.75V31C14.125 32.6569 15.4681 34 17.125 34H19.875C21.5319 34 22.875 32.6569 22.875 31V28.75C22.875 27.0931 21.5319 25.75 19.875 25.75H17.125ZM30.25 25.75C28.5931 25.75 27.25 27.0931 27.25 28.75V31C27.25 32.6569 28.5931 34 30.25 34H33C34.6569 34 36 32.6569 36 31V28.75C36 27.0931 34.6569 25.75 33 25.75H30.25Z" stroke="#D9D9D9" stroke-width="2"/>
</svg>
