<svg width="45" height="46" viewBox="0 0 45 46" fill="none" xmlns="http://www.w3.org/2000/svg">
<g filter="url(#filter0_d_1_85)">
<path d="M22.4117 1.50879C21.1393 1.50879 19.9939 2.27996 19.5153 3.45886L18.4414 6.10381C18.2901 6.47645 17.9748 6.75445 17.615 6.93407V6.93407C17.235 7.12376 16.7941 7.15894 16.4046 6.98958L14.0779 5.97788C12.837 5.43832 11.3915 5.7256 10.4512 6.69865V6.69865C9.55916 7.6218 9.29533 8.98413 9.77826 10.1736L10.8294 12.7626C10.9944 13.1689 10.9726 13.6292 10.7911 14.0284V14.0284C10.6194 14.4061 10.3272 14.7136 9.94673 14.879L7.52962 15.93C6.31676 16.4574 5.53225 17.654 5.53225 18.9765V18.9765C5.53225 20.2991 6.31676 21.4957 7.52963 22.0231L9.94674 23.074C10.3272 23.2395 10.6194 23.547 10.7911 23.9247V23.9247C10.9726 24.3239 10.9944 24.7842 10.8294 25.1905L9.77826 27.7795C9.29533 28.969 9.55916 30.3313 10.4512 31.2544V31.2544C11.3915 32.2275 12.837 32.5148 14.0779 31.9752L16.4041 30.9638C16.7984 30.7923 17.2326 30.7942 17.6167 30.9873V30.9873C17.9781 31.1688 18.288 31.4716 18.4402 31.8463L19.5153 34.4942C19.9939 35.6731 21.1393 36.4443 22.4117 36.4443V36.4443C23.6841 36.4443 24.8295 35.6731 25.3081 34.4942L26.4043 31.7945C26.5435 31.4515 26.8023 31.1805 27.139 31.0266V31.0266C27.5578 30.8351 28.0486 30.8025 28.4709 30.9862L30.7455 31.9752C31.9864 32.5148 33.4319 32.2275 34.3722 31.2544V31.2544C35.2642 30.3313 35.5281 28.969 35.0451 27.7795L33.9928 25.1877C33.8277 24.7811 33.8332 24.3253 34.0158 23.9263V23.9263C34.1899 23.546 34.4956 23.2397 34.8791 23.073L37.2938 22.0231C38.5067 21.4957 39.2912 20.2991 39.2912 18.9765V18.9765C39.2912 17.654 38.5066 16.4574 37.2938 15.93L34.884 14.8822C34.5013 14.7158 34.2185 14.4023 34.0455 14.0226V14.0226C33.8663 13.6294 33.8289 13.1691 33.9915 12.7687L35.0451 10.1736C35.5281 8.98413 35.2642 7.6218 34.3722 6.69865V6.69865C33.4319 5.7256 31.9864 5.43832 30.7455 5.97788L28.4358 6.98219C28.031 7.15818 27.5701 7.15196 27.1738 6.95773V6.95773C26.8196 6.78415 26.5384 6.48906 26.3901 6.1236L25.3081 3.45886C24.8295 2.27996 23.6841 1.50879 22.4117 1.50879V1.50879ZM22.4117 12.3989C25.9055 12.3989 28.7257 15.3175 28.7257 18.933C28.7257 22.5485 25.9055 25.4671 22.4117 25.4671C18.918 25.4671 16.0977 22.5485 16.0977 18.933C16.0977 15.3175 18.918 12.3989 22.4117 12.3989Z" stroke="#DEE0E8" stroke-width="3"/>
</g>
<defs>
<filter id="filter0_d_1_85" x="0" y="0" width="44.8238" height="46" filterUnits="userSpaceOnUse" color-interpolation-filters="sRGB">
<feFlood flood-opacity="0" result="BackgroundImageFix"/>
<feColorMatrix in="SourceAlpha" type="matrix" values="0 0 0 0 0 0 0 0 0 0 0 0 0 0 0 0 0 0 127 0" result="hardAlpha"/>
<feOffset dy="4"/>
<feGaussianBlur stdDeviation="2"/>
<feComposite in2="hardAlpha" operator="out"/>
<feColorMatrix type="matrix" values="0 0 0 0 0 0 0 0 0 0 0 0 0 0 0 0 0 0 0.25 0"/>
<feBlend mode="normal" in2="BackgroundImageFix" result="effect1_dropShadow_1_85"/>
<feBlend mode="normal" in="SourceGraphic" in2="effect1_dropShadow_1_85" result="shape"/>
</filter>
</defs>
</svg>
