<svg width="9" height="12" viewBox="0 0 9 12" fill="none" xmlns="http://www.w3.org/2000/svg">
<path d="M0.341317 0C0.143713 0 0 0.11985 0 0.284644V11.7154C0 11.8801 0.143713 12 0.341317 12H8.65868C8.85629 12 9 11.8801 9 11.7154V0.284644C9 0.11985 8.85629 0 8.65868 0L0.341317 0ZM1.79641 1.49813H7.18563V8.98876H1.79641V1.49813ZM4.49102 9.73783C4.99401 9.73783 5.38922 10.0674 5.38922 10.4869C5.38922 10.9064 4.99401 11.236 4.49102 11.236C3.98802 11.236 3.59281 10.9064 3.59281 10.4869C3.59281 10.0674 3.98802 9.73783 4.49102 9.73783Z" fill="#5DB1CB"/>
</svg>
