<svg width="36" height="34" viewBox="0 0 36 34" fill="none" xmlns="http://www.w3.org/2000/svg">
<g filter="url(#filter0_d_1_81)">
<path d="M21.7467 2.97897C19.9496 1.54999 19.051 0.835507 18.0002 0.835507C16.9494 0.835507 16.0508 1.54999 14.2536 2.97896L2.61085 12.2363C1.7479 12.9225 2.23308 14.3122 3.33557 14.3122C3.97869 14.3122 4.50004 14.8336 4.50004 15.4767V28.8952C4.50004 30.2837 4.50004 30.9779 4.7247 31.5263C5.0304 32.2725 5.62274 32.8649 6.36896 33.1706C6.91736 33.3952 7.6116 33.3952 9.00008 33.3952C10.3886 33.3952 11.0828 33.3952 11.6312 33.1706C12.3774 32.8649 12.9698 32.2725 13.2755 31.5263C13.5001 30.9779 13.5001 30.2837 13.5001 28.8952V28.3538C13.5001 26.9653 13.5001 26.2711 13.7248 25.7227C14.0305 24.9764 14.6228 24.3841 15.369 24.0784C15.9174 23.8537 16.6117 23.8537 18.0002 23.8537C19.3886 23.8537 20.0829 23.8537 20.6313 24.0784C21.3775 24.3841 21.9698 24.9764 22.2755 25.7227C22.5002 26.2711 22.5002 26.9653 22.5002 28.3538V28.8952C22.5002 30.2837 22.5002 30.9779 22.7249 31.5263C23.0306 32.2725 23.6229 32.8649 24.3691 33.1706C24.9175 33.3952 25.6118 33.3952 27.0002 33.3952C28.3887 33.3952 29.083 33.3952 29.6314 33.1706C30.3776 32.8649 30.9699 32.2725 31.2756 31.5263C31.5003 30.9779 31.5003 30.2837 31.5003 28.8952V15.3167C31.5003 14.6889 32.0198 14.1856 32.6473 14.2056C33.717 14.2396 34.2122 12.8905 33.3745 12.2244L21.7467 2.97897Z" fill="#DEE0E8" stroke="#DEE0E8" stroke-width="3"/>
</g>
<defs>
<filter id="filter0_d_1_81" x="-3.35289" y="-0.669452" width="42.6715" height="43.5962" filterUnits="userSpaceOnUse" color-interpolation-filters="sRGB">
<feFlood flood-opacity="0" result="BackgroundImageFix"/>
<feColorMatrix in="SourceAlpha" type="matrix" values="0 0 0 0 0 0 0 0 0 0 0 0 0 0 0 0 0 0 127 0" result="hardAlpha"/>
<feOffset dy="4"/>
<feGaussianBlur stdDeviation="2"/>
<feComposite in2="hardAlpha" operator="out"/>
<feColorMatrix type="matrix" values="0 0 0 0 0 0 0 0 0 0 0 0 0 0 0 0 0 0 0.25 0"/>
<feBlend mode="normal" in2="BackgroundImageFix" result="effect1_dropShadow_1_81"/>
<feBlend mode="normal" in="SourceGraphic" in2="effect1_dropShadow_1_81" result="shape"/>
</filter>
</defs>
</svg>
