<svg width="34" height="35" viewBox="0 0 34 35" fill="none" xmlns="http://www.w3.org/2000/svg">
<g filter="url(#filter0_d_1_180)">
<path d="M16.9106 0C15.6359 0 14.4884 0.772591 14.0088 1.95367L12.933 4.6035C12.7814 4.97683 12.4656 5.25534 12.1051 5.4353V5.4353C11.7243 5.62534 11.2827 5.66058 10.8925 5.4909L8.56141 4.47734C7.31821 3.93678 5.87008 4.22459 4.92805 5.19944V5.19944C4.03435 6.12429 3.77003 7.48914 4.25385 8.68076L5.30697 11.2745C5.47227 11.6817 5.45041 12.1428 5.26855 12.5428V12.5428C5.09651 12.9211 4.80381 13.2292 4.42264 13.3949L2.00107 14.4479C0.785957 14.9762 0 16.175 0 17.5V17.5C0 18.825 0.785959 20.0238 2.00107 20.5521L4.42264 21.6051C4.80381 21.7708 5.09651 22.0789 5.26855 22.4572V22.4572C5.45041 22.8572 5.47227 23.3183 5.30697 23.7255L4.25385 26.3192C3.77003 27.5109 4.03435 28.8757 4.92805 29.8006V29.8006C5.87008 30.7754 7.31822 31.0632 8.56141 30.5227L10.8919 29.5093C11.2869 29.3376 11.7219 29.3395 12.1068 29.5329V29.5329C12.4689 29.7148 12.7793 30.0181 12.9318 30.3935L14.0088 33.0463C14.4884 34.2274 15.6359 35 16.9106 35V35C18.1853 35 19.3329 34.2274 19.8124 33.0463L20.9105 30.3416C21.0501 29.998 21.3094 29.7265 21.6466 29.5723V29.5723C22.0662 29.3805 22.5579 29.3478 22.981 29.5318L25.2598 30.5227C26.503 31.0632 27.9512 30.7754 28.8932 29.8006V29.8006C29.7869 28.8757 30.0512 27.5109 29.5674 26.3192L28.5131 23.7226C28.3477 23.3153 28.3532 22.8586 28.5362 22.4589V22.4589C28.7105 22.0779 29.0168 21.7711 29.401 21.604L31.8202 20.5521C33.0353 20.0238 33.8212 18.825 33.8212 17.5V17.5C33.8212 16.175 33.0353 14.9762 31.8202 14.4479L29.4059 13.3981C29.0226 13.2314 28.7392 12.9173 28.5659 12.5369V12.5369C28.3863 12.143 28.3489 11.6819 28.5118 11.2807L29.5674 8.68077C30.0512 7.48914 29.7869 6.12429 28.8932 5.19944V5.19944C27.9512 4.22459 26.503 3.93678 25.2598 4.47734L22.9458 5.4835C22.5403 5.65981 22.0786 5.65358 21.6815 5.45899V5.45899C21.3267 5.28509 21.045 4.98946 20.8963 4.62332L19.8124 1.95367C19.3329 0.772592 18.1853 0 16.9106 0V0ZM16.9106 10.9102C20.4108 10.9102 23.2363 13.8342 23.2363 17.4564C23.2363 21.0786 20.4108 24.0025 16.9106 24.0025C13.4104 24.0025 10.5849 21.0786 10.5849 17.4564C10.5849 13.8342 13.4104 10.9102 16.9106 10.9102Z" stroke="#D9D9D9" stroke-width="3"/>
</g>
<defs>
<filter id="filter0_d_1_180" x="-5.54246" y="-1.51158" width="44.9065" height="46.0849" filterUnits="userSpaceOnUse" color-interpolation-filters="sRGB">
<feFlood flood-opacity="0" result="BackgroundImageFix"/>
<feColorMatrix in="SourceAlpha" type="matrix" values="0 0 0 0 0 0 0 0 0 0 0 0 0 0 0 0 0 0 127 0" result="hardAlpha"/>
<feOffset dy="4"/>
<feGaussianBlur stdDeviation="2"/>
<feComposite in2="hardAlpha" operator="out"/>
<feColorMatrix type="matrix" values="0 0 0 0 0 0 0 0 0 0 0 0 0 0 0 0 0 0 0.25 0"/>
<feBlend mode="normal" in2="BackgroundImageFix" result="effect1_dropShadow_1_180"/>
<feBlend mode="normal" in="SourceGraphic" in2="effect1_dropShadow_1_180" result="shape"/>
</filter>
</defs>
</svg>
