<svg width="34" height="28" viewBox="0 0 34 28" fill="none" xmlns="http://www.w3.org/2000/svg">
<path d="M3.49002 3.78455L3.48995 3.78448L3.48071 3.79473C1.96933 5.47054 1.01124 7.74465 1.01124 10.3259C1.01124 12.8705 1.97238 15.1384 3.47156 16.8468L3.47149 16.8469L3.48071 16.8571L3.51905 16.8996C5.92075 19.5626 7.77373 21.6172 9.3972 23.095C11.0396 24.5899 12.5321 25.5763 14.2388 26.0137C16.0503 26.4778 17.9495 26.4778 19.761 26.0137C21.4677 25.5763 22.9603 24.5899 24.6026 23.095C26.2261 21.6172 28.0791 19.5626 30.4808 16.8997L30.5191 16.8571C32.0305 15.1813 32.9886 12.9072 32.9886 10.3259C32.9886 7.78133 32.0275 5.51347 30.5283 3.80501L30.5283 3.80495L30.5191 3.79473C29.0078 2.11898 26.9116 1.01124 24.4886 1.01124C22.0988 1.01124 20.0082 2.12237 18.4675 3.78455L18.4674 3.78448L18.4581 3.79473C17.8817 4.43392 17.3857 5.16016 16.9927 5.95729C16.6034 5.17064 16.1152 4.44818 15.5508 3.80501L15.5509 3.80495L15.5417 3.79473C14.0304 2.11898 11.9342 1.01124 9.5112 1.01124C7.12132 1.01124 5.03075 2.12237 3.49002 3.78455Z" stroke="#5DB1CB" stroke-width="2" stroke-linejoin="round"/>
</svg>
